<?xml version="1.0" encoding="iso-8859-1"?>
<!-- Generator: Adobe Illustrator 25.0.0, SVG Export Plug-In . SVG Version: 6.00 Build 0)  -->
<svg version="1.1" baseProfile="basic" id="Layer_1"
	 xmlns="http://www.w3.org/2000/svg" xmlns:xlink="http://www.w3.org/1999/xlink" x="0px" y="0px" viewBox="0 0 72 72"
	 xml:space="preserve">
<path d="M36.25,14C56.421,14,58,15.579,58,35.75v0.5C58,56.421,56.421,58,36.25,58h-0.5C15.579,58,14,56.421,14,36.25v-0.5
	C14,15.579,15.579,14,35.75,14H36.25z M36.024,46c5.522-0.013,9.989-4.502,9.976-10.024c-0.013-5.522-4.502-9.989-10.024-9.976
	c-5.522,0.013-9.989,4.502-9.976,10.024C26.013,41.546,30.502,46.013,36.024,46z M49.004,25.5c0.829-0.002,1.498-0.675,1.496-1.504
	c-0.002-0.828-0.675-1.498-1.504-1.496c-0.829,0.002-1.498,0.675-1.496,1.504C47.502,24.833,48.175,25.502,49.004,25.5z"/>
<path d="M35.99,32c2.209-0.005,4.004,1.781,4.01,3.99c0.005,2.209-1.781,4.005-3.99,4.01c-2.209,0.005-4.004-1.781-4.01-3.99
	C31.995,33.801,33.781,32.006,35.99,32z"/>
</svg>